# xmcd
# 
# Track frame offsets:
#     150
#     24702
#     45860
# 
# Disc length: 937
# 
# Revision: 6
# Processed by: cddbd v1.5.2PL0 Copyright (c) Steve Scherf et al.
# Submitted via: fre:ac v1.0.31
# 
DISCID=1803a703
DTITLE=浅倉大介 - SIREN'S MELODY
DYEAR=1995
DGENRE=Rock
TTITLE0=SIREN'S MELODY
TTITLE1=KARMA FOREST
TTITLE2=SIREN'S MELODY(INSTRUMENTAL MIX)
EXTD=
EXTT0=
EXTT1=
EXTT2=
PLAYORDER=
